<svg id="Layer_1" height="512" viewBox="0 0 64 64" width="512" xmlns="http://www.w3.org/2000/svg"><g><g><path d="m30.7 30.2h-11.9c-.6 0-1-.4-1-1s.4-1 1-1h11.9c.6 0 1 .4 1 1s-.4 1-1 1z" fill="rgb(0,0,0)"/></g><g><path d="m8 29.8c-.1 0-.2 0-.3-.1l-3.5-1.3c-.8-.3-1.5-1.1-1.6-1.9v-.1l-.1-1.2c-.1-.9.2-1.7 1-2.3l.1-.1c0-.1 0-.2 0-.2l.3-1.3c.1-1.1 1.2-2 2.5-2h1.3.2c1.5-.7 2.7-1.2 3.7-1.7 2.8-1.4 4.6-2.2 8-2.4 4.3-.5 6.2 1.1 9.5 3.8l.9.8c.2.1.2.1.2.1h.2c5.1-.3 9.4.4 12.9 2.3.8.5 1.3 1.3 1.3 2.2v2.8c0 1.4-1.1 2.5-2.5 2.5h-.6c-.6 0-1-.4-1-1s.4-1 1-1h.5c.4 0 .5-.3.5-.5v-2.8c0-.1-.1-.3-.3-.4-3.2-1.7-7-2.4-11.7-2.1-.6.1-1.2 0-1.8-.5l-1-.8c-3.1-2.6-4.5-3.7-8-3.3-3.1.1-4.6.9-7.3 2.2-1 .5-2.2 1.1-3.8 1.7-.4.2-.7.2-1 .2h-1.3c-.2 0-.5.2-.5.3l-.3 1.3c0 .7-.4 1.2-.9 1.6-.1.1-.2.2-.2.4v.1l.1 1.1c.1.2.2.4.4.4l3.5 1.3c.5.2.8.8.6 1.3-.2.4-.6.6-1 .6z" fill="rgb(0,0,0)"/></g><g><path d="m36 32.2c-2.4 0-4.3-1.9-4.3-4.3s1.9-4.3 4.3-4.3 4.3 1.9 4.3 4.3-1.9 4.3-4.3 4.3zm0-6.6c-1.3 0-2.3 1-2.3 2.3s1 2.3 2.3 2.3 2.3-1 2.3-2.3-1-2.3-2.3-2.3z" fill="rgb(0,0,0)"/></g><g><path d="m13.4 32.2c-2.4 0-4.3-1.9-4.3-4.3s1.9-4.3 4.3-4.3 4.3 1.9 4.3 4.3-1.9 4.3-4.3 4.3zm0-6.6c-1.3 0-2.3 1-2.3 2.3s1 2.3 2.3 2.3 2.3-1 2.3-2.3-1-2.3-2.3-2.3z" fill="rgb(0,0,0)"/></g><g><path d="m42.9 43.5h-18.9c-.6 0-1-.4-1-1s.4-1 1-1h18.9c.6 0 1 .4 1 1s-.4 1-1 1z" fill="rgb(0,0,0)"/></g><g><path d="m7.3 43.5h-3.4c-2.2 0-3.9-1.8-3.9-3.9v-3.1c0-2.2 1.8-4 4-4h42.9v-13c0-2.2 1.8-4 4-4h4.7c2 0 3.7 1.2 4.5 3l.6 1.4 3 7.3c.2.3.2.7.3.9 0 .1 0 .2.1.2 0 .1.1.2.1.3v10.8c0 2.2-1.7 3.9-3.9 3.9h-.6c-.6 0-1-.4-1-1s.4-1 1-1h.6c1 0 1.9-.9 1.9-1.9v-10.6c0-.1 0-.2-.1-.3 0-.2-.1-.3-.1-.5l-3.6-8.8c-.5-1.1-1.5-1.8-2.7-1.8h-4.7c-1.1 0-2 .9-2 2v14c0 .6-.4 1-1 1h-44c-1.1 0-2 .9-2 2v3.1c0 1 .9 1.9 1.9 1.9h3.4c.6 0 1 .4 1 1s-.4 1.1-1 1.1z" fill="rgb(0,0,0)"/></g><g><path d="m59.9 29.7h-5.9c-1.6 0-2.9-1.3-2.9-2.9v-4.6c0-1.6 1.3-2.9 2.9-2.9h2.5c.6 0 1 .4 1 1s-.4 1-1 1h-2.5c-.6 0-.9.5-.9.9v4.6c0 .6.5.9.9.9h5.9c.6 0 1 .4 1 1s-.4 1-1 1z" fill="rgb(0,0,0)"/></g><g><path d="m52.1 34.9c-.6 0-1-.4-1-1v-1.8c0-.6.4-1 1-1s1 .4 1 1v1.8c0 .6-.4 1-1 1z" fill="rgb(0,0,0)"/></g><g><path d="m61.4 38.2h-.1c-1.3 0-2.5-.5-3.4-1.4-.7-.7-.9-1.8-.5-2.8s1.4-1.6 2.4-1.6h1.6c1.5 0 2.6 1.1 2.6 2.6v.6c0 1.5-1.1 2.6-2.6 2.6zm-1.6-3.8c-.3 0-.5.2-.6.4s-.1.4.1.6c.5.5 1.3.8 2 .8h.1c.3 0 .6-.3.6-.6v-.6c0-.3-.3-.6-.6-.6z" fill="rgb(0,0,0)"/></g><g><path d="m51.2 48.8c-3.5 0-6.3-2.8-6.3-6.3s2.8-6.3 6.3-6.3 6.3 2.8 6.3 6.3-2.8 6.3-6.3 6.3zm0-10.6c-2.3 0-4.3 2-4.3 4.3s2 4.3 4.3 4.3 4.3-2 4.3-4.3c0-2.5-1.8-4.3-4.3-4.3z" fill="rgb(0,0,0)"/></g><g><path d="m15.6 48.8c-3.5 0-6.3-2.8-6.3-6.3s2.8-6.3 6.3-6.3 6.3 2.8 6.3 6.3-2.8 6.3-6.3 6.3zm0-10.6c-2.3 0-4.3 2-4.3 4.3s2 4.3 4.3 4.3 4.3-2 4.3-4.3c0-2.4-1.9-4.3-4.3-4.3z" fill="rgb(0,0,0)"/></g></g></svg>